<?xml version="1.0" standalone="no"?>
<!DOCTYPE svg PUBLIC "-//W3C//DTD SVG 20010904//EN"
 "http://www.w3.org/TR/2001/REC-SVG-20010904/DTD/svg10.dtd">
<svg version="1.0" xmlns="http://www.w3.org/2000/svg"
 width="400.000000pt" height="400.000000pt" viewBox="0 0 400.000000 400.000000"
 preserveAspectRatio="xMidYMid meet">
<metadata>
Created by potrace 1.14, written by Peter Selinger 2001-2017
</metadata>
<g transform="translate(0.000000,400.000000) scale(0.100000,-0.100000)"
fill="#000000" stroke="none">
<path d="M455 2893 c-90 -15 -132 -29 -183 -62 -142 -92 -208 -204 -203 -343
1 -32 49 -89 91 -110 17 -8 39 -30 48 -48 23 -45 83 -92 119 -92 55 -2 61 2
73 40 6 20 14 44 17 52 4 8 7 17 8 20 3 13 56 110 60 110 4 0 -1 -31 -20 -120
-17 -75 -23 -97 -67 -240 -17 -58 -32 -109 -34 -115 -1 -5 -13 -46 -27 -90
-76 -237 -121 -381 -123 -392 -1 -7 -12 -42 -24 -79 -20 -60 -21 -68 -7 -76 9
-4 22 -14 29 -21 16 -16 80 -43 92 -39 5 2 6 -10 3 -26 -5 -22 -1 -34 16 -50
66 -60 175 -76 223 -32 32 30 61 86 69 131 10 57 149 475 200 604 5 11 21 54
37 95 46 118 134 289 182 353 47 63 125 128 127 105 2 -18 2 -17 -5 -78 -8
-70 -24 -128 -98 -375 -33 -110 -71 -238 -85 -285 -13 -47 -42 -143 -64 -214
-38 -124 -39 -130 -22 -149 22 -23 86 -57 109 -57 13 0 15 -6 11 -29 -5 -25
-1 -34 25 -56 41 -34 72 -46 127 -48 38 -1 47 3 76 35 29 31 63 114 80 193 1
6 9 36 19 67 10 32 17 60 17 63 0 2 27 84 59 181 127 375 233 610 319 704 28
31 50 48 51 40 0 -8 -11 -60 -25 -115 -14 -55 -27 -109 -30 -120 -3 -11 -23
-76 -45 -145 -37 -114 -84 -277 -96 -333 -59 -270 -38 -381 85 -457 23 -14 41
-29 41 -35 0 -20 57 -76 101 -99 97 -52 247 -55 345 -7 l39 19 28 -34 c20 -24
44 -38 80 -48 58 -16 98 -14 202 9 89 21 224 22 297 2 43 -11 60 -12 66 -3 10
12 112 189 168 292 184 336 191 345 248 330 26 -6 28 -10 22 -39 -5 -31 -39
-157 -90 -345 -32 -115 -32 -137 -3 -166 21 -21 34 -24 123 -25 62 -1 104 -7
114 -15 8 -7 24 -11 35 -10 189 19 293 59 374 142 118 122 130 398 19 454 -82
41 -79 40 -373 40 -306 0 -352 0 -412 -2 -46 -2 -71 2 -102 18 -86 45 -249 46
-378 1 -117 -40 -263 -147 -319 -234 -24 -37 -56 -75 -63 -75 -4 0 -5 19 -3
43 5 61 -20 89 -82 93 -43 2 -50 -1 -89 -38 -53 -51 -114 -90 -122 -78 -7 11
39 193 85 335 114 356 153 523 154 660 0 85 -3 107 -22 146 -28 56 -51 82
-103 114 -21 14 -39 31 -39 38 0 24 -71 85 -114 100 -25 9 -70 13 -110 11 -93
-4 -176 -45 -264 -131 -54 -53 -70 -63 -82 -54 -8 6 -30 21 -47 32 -18 12 -42
37 -54 58 -11 20 -41 50 -67 66 -124 79 -353 10 -456 -137 -14 -19 -19 -21
-34 -10 -9 7 -32 20 -49 29 -18 9 -33 22 -33 30 0 37 -92 108 -155 119 -53 9
-72 10 -90 7z m2464 -1137 c39 -7 101 -36 76 -36 -10 0 -17 -10 -79 -125 -48
-87 -238 -429 -243 -434 -1 -2 -11 3 -20 11 -34 30 -77 31 -142 3 -62 -26 -92
-24 -103 7 -16 42 2 123 47 216 26 53 52 100 57 103 5 3 8 8 6 11 -1 2 14 32
35 65 34 56 128 153 147 153 5 0 21 5 37 12 15 6 39 13 53 15 13 2 26 6 27 7
4 4 49 0 102 -8z m767 -114 c55 -29 57 -128 5 -271 -36 -98 -71 -148 -118
-168 -31 -12 -98 -11 -111 2 -3 3 -11 0 -18 -6 -24 -20 -28 18 -9 89 9 37 21
78 26 92 5 14 11 35 14 48 3 12 7 31 10 42 17 78 48 176 58 183 16 10 117 3
143 -11z"/>
</g>
</svg>
