<svg xmlns="http://www.w3.org/2000/svg" version="1.1" xmlns:xlink="http://www.w3.org/1999/xlink" xmlns:svgjs="http://svgjs.com/svgjs" width="3600" height="2400" preserveAspectRatio="none" viewBox="0 0 3600 2400"><g mask="url(&quot;#SvgjsMask1527&quot;)" fill="none"><g mask="url(&quot;#SvgjsMask1528&quot;)"><path d="M-25 1225L25 1225" stroke="rgba(237, 37, 78, 1)" stroke-width="8.33"></path><path d="M12.5 1225 a12.5 12.5 0 1 0 25 0 a12.5 12.5 0 1 0 -25 0z" fill="rgba(237, 37, 78, 1)"></path><path d="M325 1125L375 1175M75 1175L125 1225L175 1225L225 1275M425 1125L475 1175L525 1175L575 1175M-25 1175L25 1175L75 1175L125 1175L175 1175L225 1125L275 1125L325 1125L375 1125L425 1125L475 1125" stroke="rgba(31, 181, 123, 1)" stroke-width="8.33"></path><path d="M462.5 1125 a12.5 12.5 0 1 0 25 0 a12.5 12.5 0 1 0 -25 0zM362.5 1175 a12.5 12.5 0 1 0 25 0 a12.5 12.5 0 1 0 -25 0zM212.5 1275 a12.5 12.5 0 1 0 25 0 a12.5 12.5 0 1 0 -25 0zM562.5 1175 a12.5 12.5 0 1 0 25 0 a12.5 12.5 0 1 0 -25 0z" fill="rgba(31, 181, 123, 1)"></path><path d="M525 1325L575 1275L625 1275L675 1225L725 1175M325 1325L375 1275L425 1275M75 1325L125 1275M-25 1275L25 1275L75 1325L125 1325L175 1325L225 1325L275 1325L325 1325L375 1325L425 1325L475 1325L525 1325L575 1325L625 1325L675 1325" stroke="rgba(237, 37, 78, 1)" stroke-width="8.33"></path><path d="M662.5 1325 a12.5 12.5 0 1 0 25 0 a12.5 12.5 0 1 0 -25 0zM712.5 1175 a12.5 12.5 0 1 0 25 0 a12.5 12.5 0 1 0 -25 0zM412.5 1275 a12.5 12.5 0 1 0 25 0 a12.5 12.5 0 1 0 -25 0zM112.5 1275 a12.5 12.5 0 1 0 25 0 a12.5 12.5 0 1 0 -25 0z" fill="rgba(237, 37, 78, 1)"></path><path d="M475 1075L525 1025L575 1025M425 1075L475 1025L525 975M225 1075L275 1025L325 1025L375 1025L425 1025M-25 1125L25 1125L75 1125L125 1125L175 1125L225 1075L275 1075L325 1075L375 1075L425 1075L475 1075L525 1075L575 1075" stroke="rgba(237, 37, 78, 1)" stroke-width="8.33"></path><path d="M562.5 1075 a12.5 12.5 0 1 0 25 0 a12.5 12.5 0 1 0 -25 0zM562.5 1025 a12.5 12.5 0 1 0 25 0 a12.5 12.5 0 1 0 -25 0zM512.5 975 a12.5 12.5 0 1 0 25 0 a12.5 12.5 0 1 0 -25 0zM412.5 1025 a12.5 12.5 0 1 0 25 0 a12.5 12.5 0 1 0 -25 0z" fill="rgba(237, 37, 78, 1)"></path><path d="M575 1375L625 1425L675 1425L725 1425L775 1475M375 1375L425 1425L475 1425L525 1425L575 1425M325 1375L375 1425M725 1375L775 1325M-25 1325L25 1325L75 1375L125 1375L175 1375L225 1375L275 1375L325 1375L375 1375L425 1375L475 1375L525 1375L575 1375L625 1375L675 1375L725 1375L775 1375" stroke="rgba(249, 220, 92, 1)" stroke-width="8.33"></path><path d="M762.5 1375 a12.5 12.5 0 1 0 25 0 a12.5 12.5 0 1 0 -25 0zM762.5 1475 a12.5 12.5 0 1 0 25 0 a12.5 12.5 0 1 0 -25 0zM562.5 1425 a12.5 12.5 0 1 0 25 0 a12.5 12.5 0 1 0 -25 0zM362.5 1425 a12.5 12.5 0 1 0 25 0 a12.5 12.5 0 1 0 -25 0zM762.5 1325 a12.5 12.5 0 1 0 25 0 a12.5 12.5 0 1 0 -25 0z" fill="rgba(249, 220, 92, 1)"></path><path d="M575 875L625 875M75 1025L125 1025L175 1025M25 1025L75 1075L125 1075L175 1075M-25 1075L25 1025L75 1025L125 975L175 975L225 975L275 975L325 925L375 925L425 925L475 875L525 875L575 875L625 925" stroke="rgba(249, 220, 92, 1)" stroke-width="8.33"></path><path d="M612.5 925 a12.5 12.5 0 1 0 25 0 a12.5 12.5 0 1 0 -25 0zM612.5 875 a12.5 12.5 0 1 0 25 0 a12.5 12.5 0 1 0 -25 0zM162.5 1025 a12.5 12.5 0 1 0 25 0 a12.5 12.5 0 1 0 -25 0zM162.5 1075 a12.5 12.5 0 1 0 25 0 a12.5 12.5 0 1 0 -25 0z" fill="rgba(249, 220, 92, 1)"></path><path d="M225 1425L275 1475M-25 1375L25 1375L75 1425L125 1425L175 1425L225 1425L275 1425L325 1475L375 1475L425 1475L475 1475L525 1475L575 1475L625 1475L675 1475L725 1475" stroke="rgba(237, 37, 78, 1)" stroke-width="8.33"></path><path d="M712.5 1475 a12.5 12.5 0 1 0 25 0 a12.5 12.5 0 1 0 -25 0zM262.5 1475 a12.5 12.5 0 1 0 25 0 a12.5 12.5 0 1 0 -25 0z" fill="rgba(237, 37, 78, 1)"></path><path d="M725 825L775 875L825 875M675 825L725 875L775 925M525 825L575 775L625 775M375 875L425 825M-25 1025L25 975L75 975L125 925L175 925L225 925L275 925L325 875L375 875L425 875L475 825L525 825L575 825L625 825L675 825L725 825L775 825" stroke="rgba(249, 220, 92, 1)" stroke-width="8.33"></path><path d="M762.5 825 a12.5 12.5 0 1 0 25 0 a12.5 12.5 0 1 0 -25 0zM812.5 875 a12.5 12.5 0 1 0 25 0 a12.5 12.5 0 1 0 -25 0zM762.5 925 a12.5 12.5 0 1 0 25 0 a12.5 12.5 0 1 0 -25 0zM612.5 775 a12.5 12.5 0 1 0 25 0 a12.5 12.5 0 1 0 -25 0zM412.5 825 a12.5 12.5 0 1 0 25 0 a12.5 12.5 0 1 0 -25 0z" fill="rgba(249, 220, 92, 1)"></path><path d="M-25 1425L25 1425L75 1475L125 1475L175 1475" stroke="rgba(31, 181, 123, 1)" stroke-width="8.33"></path><path d="M162.5 1475 a12.5 12.5 0 1 0 25 0 a12.5 12.5 0 1 0 -25 0z" fill="rgba(31, 181, 123, 1)"></path><path d="M525 1525L575 1575L625 1575L675 1625L725 1625M675 1525L725 1575M425 1525L475 1575L525 1575M375 1525L425 1575L475 1625L525 1625M-25 1475L25 1475L75 1525L125 1525L175 1525L225 1525L275 1525L325 1525L375 1525L425 1525L475 1525L525 1525L575 1525L625 1525L675 1525L725 1525L775 1525L825 1525" stroke="rgba(237, 37, 78, 1)" stroke-width="8.33"></path><path d="M812.5 1525 a12.5 12.5 0 1 0 25 0 a12.5 12.5 0 1 0 -25 0zM712.5 1625 a12.5 12.5 0 1 0 25 0 a12.5 12.5 0 1 0 -25 0zM712.5 1575 a12.5 12.5 0 1 0 25 0 a12.5 12.5 0 1 0 -25 0zM512.5 1575 a12.5 12.5 0 1 0 25 0 a12.5 12.5 0 1 0 -25 0zM512.5 1625 a12.5 12.5 0 1 0 25 0 a12.5 12.5 0 1 0 -25 0z" fill="rgba(237, 37, 78, 1)"></path><path d="M-25 925L25 925" stroke="rgba(249, 220, 92, 1)" stroke-width="8.33"></path><path d="M12.5 925 a12.5 12.5 0 1 0 25 0 a12.5 12.5 0 1 0 -25 0z" fill="rgba(249, 220, 92, 1)"></path><path d="M-25 1525L25 1525L75 1575L125 1575L175 1575L225 1575L275 1575L325 1575" stroke="rgba(249, 220, 92, 1)" stroke-width="8.33"></path><path d="M312.5 1575 a12.5 12.5 0 1 0 25 0 a12.5 12.5 0 1 0 -25 0z" fill="rgba(249, 220, 92, 1)"></path><path d="M-25 875L25 875L75 875L125 875L175 875L225 875L275 875L325 825" stroke="rgba(249, 220, 92, 1)" stroke-width="8.33"></path><path d="M312.5 825 a12.5 12.5 0 1 0 25 0 a12.5 12.5 0 1 0 -25 0z" fill="rgba(249, 220, 92, 1)"></path><path d="M225 1625L275 1675L325 1675L375 1675M175 1625L225 1675M-25 1575L25 1575L75 1625L125 1625L175 1625L225 1625L275 1625L325 1625" stroke="rgba(249, 220, 92, 1)" stroke-width="8.33"></path><path d="M312.5 1625 a12.5 12.5 0 1 0 25 0 a12.5 12.5 0 1 0 -25 0zM362.5 1675 a12.5 12.5 0 1 0 25 0 a12.5 12.5 0 1 0 -25 0zM212.5 1675 a12.5 12.5 0 1 0 25 0 a12.5 12.5 0 1 0 -25 0z" fill="rgba(249, 220, 92, 1)"></path><path d="M-25 825L25 825L75 825L125 825L175 825L225 825L275 825" stroke="rgba(31, 181, 123, 1)" stroke-width="8.33"></path><path d="M262.5 825 a12.5 12.5 0 1 0 25 0 a12.5 12.5 0 1 0 -25 0z" fill="rgba(31, 181, 123, 1)"></path><path d="M-25 1625L25 1625L75 1675" stroke="rgba(31, 181, 123, 1)" stroke-width="8.33"></path><path d="M62.5 1675 a12.5 12.5 0 1 0 25 0 a12.5 12.5 0 1 0 -25 0z" fill="rgba(31, 181, 123, 1)"></path><path d="M275 775L325 725L375 725L425 725M125 775L175 725L225 725L275 725M-25 775L25 775L75 775L125 775L175 775L225 775L275 775L325 775L375 775L425 775L475 775" stroke="rgba(237, 37, 78, 1)" stroke-width="8.33"></path><path d="M462.5 775 a12.5 12.5 0 1 0 25 0 a12.5 12.5 0 1 0 -25 0zM412.5 725 a12.5 12.5 0 1 0 25 0 a12.5 12.5 0 1 0 -25 0zM262.5 725 a12.5 12.5 0 1 0 25 0 a12.5 12.5 0 1 0 -25 0z" fill="rgba(237, 37, 78, 1)"></path><path d="M175 1775L225 1725L275 1725L325 1725M375 1825L425 1775L475 1775L525 1775M125 1725L175 1725M-25 1675L25 1675L75 1725L125 1725L175 1775L225 1775L275 1775L325 1775L375 1825L425 1825" stroke="rgba(249, 220, 92, 1)" stroke-width="8.33"></path><path d="M412.5 1825 a12.5 12.5 0 1 0 25 0 a12.5 12.5 0 1 0 -25 0zM312.5 1725 a12.5 12.5 0 1 0 25 0 a12.5 12.5 0 1 0 -25 0zM512.5 1775 a12.5 12.5 0 1 0 25 0 a12.5 12.5 0 1 0 -25 0zM162.5 1725 a12.5 12.5 0 1 0 25 0 a12.5 12.5 0 1 0 -25 0z" fill="rgba(249, 220, 92, 1)"></path><path d="M-25 725L25 725L75 725" stroke="rgba(249, 220, 92, 1)" stroke-width="8.33"></path><path d="M62.5 725 a12.5 12.5 0 1 0 25 0 a12.5 12.5 0 1 0 -25 0z" fill="rgba(249, 220, 92, 1)"></path><path d="M-25 1725L25 1725L75 1775L125 1775L175 1825" stroke="rgba(31, 181, 123, 1)" stroke-width="8.33"></path><path d="M162.5 1825 a12.5 12.5 0 1 0 25 0 a12.5 12.5 0 1 0 -25 0z" fill="rgba(31, 181, 123, 1)"></path><path d="M-25 675L25 675L75 675L125 675L175 675L225 675L275 675L325 675L375 675" stroke="rgba(249, 220, 92, 1)" stroke-width="8.33"></path><path d="M362.5 675 a12.5 12.5 0 1 0 25 0 a12.5 12.5 0 1 0 -25 0z" fill="rgba(249, 220, 92, 1)"></path><path d="M175 1875L225 1925L275 1925L325 1925M-25 1775L25 1775L75 1825L125 1825L175 1875L225 1875L275 1825" stroke="rgba(237, 37, 78, 1)" stroke-width="8.33"></path><path d="M262.5 1825 a12.5 12.5 0 1 0 25 0 a12.5 12.5 0 1 0 -25 0zM312.5 1925 a12.5 12.5 0 1 0 25 0 a12.5 12.5 0 1 0 -25 0z" fill="rgba(237, 37, 78, 1)"></path><path d="M75 625L125 575L175 575L225 575M475 625L525 675L575 675L625 675M25 625L75 575M375 625L425 575M-25 625L25 625L75 625L125 625L175 625L225 625L275 625L325 625L375 625L425 625L475 625L525 625L575 625L625 625L675 575L725 575L775 625L825 625" stroke="rgba(237, 37, 78, 1)" stroke-width="8.33"></path><path d="M812.5 625 a12.5 12.5 0 1 0 25 0 a12.5 12.5 0 1 0 -25 0zM212.5 575 a12.5 12.5 0 1 0 25 0 a12.5 12.5 0 1 0 -25 0zM612.5 675 a12.5 12.5 0 1 0 25 0 a12.5 12.5 0 1 0 -25 0zM62.5 575 a12.5 12.5 0 1 0 25 0 a12.5 12.5 0 1 0 -25 0zM412.5 575 a12.5 12.5 0 1 0 25 0 a12.5 12.5 0 1 0 -25 0z" fill="rgba(237, 37, 78, 1)"></path></g></g><defs><mask id="SvgjsMask1527"><rect width="3600" height="2400" fill="#ffffff"></rect></mask><mask id="SvgjsMask1528"><rect width="3600" height="2400" fill="white"></rect><path d="M18.75 1225 a6.25 6.25 0 1 0 12.5 0 a6.25 6.25 0 1 0 -12.5 0z" fill="black"></path><path d="M468.75 1125 a6.25 6.25 0 1 0 12.5 0 a6.25 6.25 0 1 0 -12.5 0zM368.75 1175 a6.25 6.25 0 1 0 12.5 0 a6.25 6.25 0 1 0 -12.5 0zM218.75 1275 a6.25 6.25 0 1 0 12.5 0 a6.25 6.25 0 1 0 -12.5 0zM568.75 1175 a6.25 6.25 0 1 0 12.5 0 a6.25 6.25 0 1 0 -12.5 0z" fill="black"></path><path d="M668.75 1325 a6.25 6.25 0 1 0 12.5 0 a6.25 6.25 0 1 0 -12.5 0zM718.75 1175 a6.25 6.25 0 1 0 12.5 0 a6.25 6.25 0 1 0 -12.5 0zM418.75 1275 a6.25 6.25 0 1 0 12.5 0 a6.25 6.25 0 1 0 -12.5 0zM118.75 1275 a6.25 6.25 0 1 0 12.5 0 a6.25 6.25 0 1 0 -12.5 0z" fill="black"></path><path d="M568.75 1075 a6.25 6.25 0 1 0 12.5 0 a6.25 6.25 0 1 0 -12.5 0zM568.75 1025 a6.25 6.25 0 1 0 12.5 0 a6.25 6.25 0 1 0 -12.5 0zM518.75 975 a6.25 6.25 0 1 0 12.5 0 a6.25 6.25 0 1 0 -12.5 0zM418.75 1025 a6.25 6.25 0 1 0 12.5 0 a6.25 6.25 0 1 0 -12.5 0z" fill="black"></path><path d="M768.75 1375 a6.25 6.25 0 1 0 12.5 0 a6.25 6.25 0 1 0 -12.5 0zM768.75 1475 a6.25 6.25 0 1 0 12.5 0 a6.25 6.25 0 1 0 -12.5 0zM568.75 1425 a6.25 6.25 0 1 0 12.5 0 a6.25 6.25 0 1 0 -12.5 0zM368.75 1425 a6.25 6.25 0 1 0 12.5 0 a6.25 6.25 0 1 0 -12.5 0zM768.75 1325 a6.25 6.25 0 1 0 12.5 0 a6.25 6.25 0 1 0 -12.5 0z" fill="black"></path><path d="M618.75 925 a6.25 6.25 0 1 0 12.5 0 a6.25 6.25 0 1 0 -12.5 0zM618.75 875 a6.25 6.25 0 1 0 12.5 0 a6.25 6.25 0 1 0 -12.5 0zM168.75 1025 a6.25 6.25 0 1 0 12.5 0 a6.25 6.25 0 1 0 -12.5 0zM168.75 1075 a6.25 6.25 0 1 0 12.5 0 a6.25 6.25 0 1 0 -12.5 0z" fill="black"></path><path d="M718.75 1475 a6.25 6.25 0 1 0 12.5 0 a6.25 6.25 0 1 0 -12.5 0zM268.75 1475 a6.25 6.25 0 1 0 12.5 0 a6.25 6.25 0 1 0 -12.5 0z" fill="black"></path><path d="M768.75 825 a6.25 6.25 0 1 0 12.5 0 a6.25 6.25 0 1 0 -12.5 0zM818.75 875 a6.25 6.25 0 1 0 12.5 0 a6.25 6.25 0 1 0 -12.5 0zM768.75 925 a6.25 6.25 0 1 0 12.5 0 a6.25 6.25 0 1 0 -12.5 0zM618.75 775 a6.25 6.25 0 1 0 12.5 0 a6.25 6.25 0 1 0 -12.5 0zM418.75 825 a6.25 6.25 0 1 0 12.5 0 a6.25 6.25 0 1 0 -12.5 0z" fill="black"></path><path d="M168.75 1475 a6.25 6.25 0 1 0 12.5 0 a6.25 6.25 0 1 0 -12.5 0z" fill="black"></path><path d="M818.75 1525 a6.25 6.25 0 1 0 12.5 0 a6.25 6.25 0 1 0 -12.5 0zM718.75 1625 a6.25 6.25 0 1 0 12.5 0 a6.25 6.25 0 1 0 -12.5 0zM718.75 1575 a6.25 6.25 0 1 0 12.5 0 a6.25 6.25 0 1 0 -12.5 0zM518.75 1575 a6.25 6.25 0 1 0 12.5 0 a6.25 6.25 0 1 0 -12.5 0zM518.75 1625 a6.25 6.25 0 1 0 12.5 0 a6.25 6.25 0 1 0 -12.5 0z" fill="black"></path><path d="M18.75 925 a6.25 6.25 0 1 0 12.5 0 a6.25 6.25 0 1 0 -12.5 0z" fill="black"></path><path d="M318.75 1575 a6.25 6.25 0 1 0 12.5 0 a6.25 6.25 0 1 0 -12.5 0z" fill="black"></path><path d="M318.75 825 a6.25 6.25 0 1 0 12.5 0 a6.25 6.25 0 1 0 -12.5 0z" fill="black"></path><path d="M318.75 1625 a6.25 6.25 0 1 0 12.5 0 a6.25 6.25 0 1 0 -12.5 0zM368.75 1675 a6.25 6.25 0 1 0 12.5 0 a6.25 6.25 0 1 0 -12.5 0zM218.75 1675 a6.25 6.25 0 1 0 12.5 0 a6.25 6.25 0 1 0 -12.5 0z" fill="black"></path><path d="M268.75 825 a6.25 6.25 0 1 0 12.5 0 a6.25 6.25 0 1 0 -12.5 0z" fill="black"></path><path d="M68.75 1675 a6.25 6.25 0 1 0 12.5 0 a6.25 6.25 0 1 0 -12.5 0z" fill="black"></path><path d="M468.75 775 a6.25 6.25 0 1 0 12.5 0 a6.25 6.25 0 1 0 -12.5 0zM418.75 725 a6.25 6.25 0 1 0 12.5 0 a6.25 6.25 0 1 0 -12.5 0zM268.75 725 a6.25 6.25 0 1 0 12.5 0 a6.25 6.25 0 1 0 -12.5 0z" fill="black"></path><path d="M418.75 1825 a6.25 6.25 0 1 0 12.5 0 a6.25 6.25 0 1 0 -12.5 0zM318.75 1725 a6.25 6.25 0 1 0 12.5 0 a6.25 6.25 0 1 0 -12.5 0zM518.75 1775 a6.25 6.25 0 1 0 12.5 0 a6.25 6.25 0 1 0 -12.5 0zM168.75 1725 a6.25 6.25 0 1 0 12.5 0 a6.25 6.25 0 1 0 -12.5 0z" fill="black"></path><path d="M68.75 725 a6.25 6.25 0 1 0 12.5 0 a6.25 6.25 0 1 0 -12.5 0z" fill="black"></path><path d="M168.75 1825 a6.25 6.25 0 1 0 12.5 0 a6.25 6.25 0 1 0 -12.5 0z" fill="black"></path><path d="M368.75 675 a6.25 6.25 0 1 0 12.5 0 a6.25 6.25 0 1 0 -12.5 0z" fill="black"></path><path d="M268.75 1825 a6.25 6.25 0 1 0 12.5 0 a6.25 6.25 0 1 0 -12.5 0zM318.75 1925 a6.25 6.25 0 1 0 12.5 0 a6.25 6.25 0 1 0 -12.5 0z" fill="black"></path><path d="M818.75 625 a6.25 6.25 0 1 0 12.5 0 a6.25 6.25 0 1 0 -12.5 0zM218.75 575 a6.25 6.25 0 1 0 12.5 0 a6.25 6.25 0 1 0 -12.5 0zM618.75 675 a6.25 6.25 0 1 0 12.5 0 a6.25 6.25 0 1 0 -12.5 0zM68.75 575 a6.25 6.25 0 1 0 12.5 0 a6.25 6.25 0 1 0 -12.5 0zM418.75 575 a6.25 6.25 0 1 0 12.5 0 a6.25 6.25 0 1 0 -12.5 0z" fill="black"></path></mask></defs></svg>